<svg version="1.0" xmlns="http://www.w3.org/2000/svg"
 width="980.000000pt" height="750.000000pt" viewBox="0 0 980.000000 750.000000"
 preserveAspectRatio="xMidYMid meet">
  <g transform="translate(0.000000,750.000000) scale(0.100000,-0.100000)"
  fill="#000000" stroke="none">
    <path d="M1602 7489 c-283 -27 -557 -118 -787 -262 -118 -73 -208 -146 -328
    -265 -259 -255 -404 -533 -469 -892 -19 -111 -19 -4529 0 -4640 66 -370 213
    -643 488 -910 282 -272 589 -427 985 -497 82 -14 230 -17 1194 -20 1120 -4
    1178 -3 1246 32 34 18 45 48 65 175 13 80 15 137 10 240 -8 163 -18 210 -48
    232 -13 9 -36 27 -53 40 l-29 23 -1116 6 c-835 4 -1126 8 -1160 17 -236 65
    -390 151 -545 308 -106 107 -170 208 -217 344 l-33 95 -3 2190 c-2 1977 -1
    2198 14 2270 55 276 267 542 539 676 55 27 136 59 180 71 l80 23 1137 5 c1136
    5 1137 5 1165 26 43 32 61 71 78 169 23 129 20 318 -7 423 -13 51 -69 106
    -125 121 -45 13 -2130 13 -2261 0z"/>
    <path d="M5876 7294 c-100 -31 -195 -114 -243 -212 l-28 -57 -3 -887 -2 -888
    -1418 0 c-1524 0 -1461 2 -1568 -51 -66 -33 -144 -107 -179 -171 l-30 -53 -3
    -1207 -2 -1206 21 -59 c28 -75 128 -177 214 -219 l60 -29 1452 -3 1453 -2 2
    -889 3 -888 35 -69 c26 -51 50 -80 95 -116 88 -71 148 -92 270 -92 92 -1 105
    2 165 30 36 17 88 50 115 74 28 24 309 287 625 584 316 298 1063 1001 1660
    1562 597 562 1107 1044 1133 1072 69 75 90 128 91 232 1 68 -4 95 -21 133 -35
    77 102 -56 -1338 1297 -324 306 -813 765 -1085 1021 -272 256 -627 590 -788
    741 -312 294 -354 325 -473 353 -80 18 -149 18 -213 -1z"/>
  </g>
</svg>
