<svg version="1.0" xmlns="http://www.w3.org/2000/svg"
 width="980.000000pt" height="818.000000pt" viewBox="0 0 980.000000 818.000000"
 preserveAspectRatio="xMidYMid meet">
  <g transform="translate(0.000000,818.000000) scale(0.100000,-0.100000)"
  fill="#000000" stroke="none">
    <path d="M5824 8151 c-90 -41 -118 -147 -110 -421 7 -250 12 -278 56 -307 19
    -12 40 -26 45 -31 6 -4 17 -12 25 -17 9 -6 455 -12 1145 -16 1215 -6 1161 -4
    1315 -57 201 -70 391 -220 515 -407 63 -94 95 -162 133 -284 l27 -86 3 -2398
    c2 -2316 2 -2401 -17 -2490 -39 -192 -119 -342 -262 -492 -183 -190 -378 -288
    -629 -315 -57 -6 -523 -10 -1153 -10 -1160 0 -1100 3 -1147 -58 -45 -57 -55
    -122 -55 -367 0 -205 2 -234 19 -265 26 -49 55 -79 99 -101 37 -19 66 -20
    1210 -16 1264 4 1188 1 1407 57 473 121 932 499 1159 955 100 199 158 401 181
    624 14 143 14 4739 0 4882 -52 505 -302 946 -720 1270 -260 201 -545 317 -880
    359 -54 6 -482 10 -1205 10 -1070 0 -1122 -1 -1161 -19z"/>
    <path d="M3570 7955 c-30 -9 -73 -26 -95 -39 -59 -35 -142 -128 -173 -193
    l-27 -58 -5 -970 -5 -970 -1485 -5 -1485 -5 -62 -32 c-82 -43 -154 -117 -195
    -200 l-33 -68 0 -1325 0 -1325 32 -66 c42 -86 120 -163 203 -203 l65 -31 1480
    -5 1480 -5 5 -970 5 -970 33 -67 c81 -166 262 -261 434 -229 128 23 23 -76
    1946 1845 2043 2040 1857 1838 1857 2026 0 195 181 -4 -1784 1964 -944 945
    -1753 1751 -1799 1792 -57 50 -101 80 -140 94 -75 28 -181 34 -252 15z"/>
  </g>
</svg>
